<svg width="22" height="21" viewBox="0 0 22 21" fill="none" xmlns="http://www.w3.org/2000/svg">
<path opacity="0.2" d="M7.16104 20.8956C6.68498 20.8744 6.21852 20.7558 5.79101 20.5472C5.36349 20.3386 4.98419 20.0446 4.67699 19.6837C4.36979 19.3228 4.14132 18.9027 4.00599 18.4501C3.87067 17.9974 3.83141 17.5219 3.89067 17.0534L4.13811 15.1236C4.18534 14.7535 4.14112 14.3775 4.00928 14.028C3.87743 13.6785 3.66188 13.366 3.38116 13.1172L1.91803 11.822C1.43889 11.398 1.08908 10.8496 0.908145 10.2389C0.727213 9.62817 0.722381 8.97946 0.894214 8.36617C1.06605 7.75287 1.40766 7.19944 1.88045 6.76849C2.35324 6.33753 2.93835 6.04623 3.56955 5.92754L5.49841 5.56458C5.86818 5.49507 6.21536 5.33757 6.51003 5.10561C6.80469 4.87365 7.03801 4.57419 7.18991 4.23304L7.98166 2.45182C8.24089 1.86954 8.65933 1.37071 9.18974 1.01171C9.72015 0.652701 10.3414 0.447836 10.9831 0.420271C11.6249 0.392705 12.2617 0.543542 12.8215 0.855721C13.3812 1.1679 13.8417 1.62897 14.1508 2.18684L15.0947 3.89201C15.2757 4.2194 15.5344 4.4982 15.8485 4.70442C16.1626 4.91063 16.5226 5.03803 16.8975 5.07563L18.8502 5.27108C19.4894 5.33514 20.0978 5.57511 20.6065 5.96386C21.1152 6.35261 21.504 6.87464 21.7289 7.47087C21.9537 8.06711 22.0056 8.71378 21.8788 9.33774C21.752 9.96171 21.4515 10.5381 21.0113 11.0017L19.6664 12.4182C19.4082 12.6896 19.2207 13.0192 19.1199 13.3785C19.0192 13.7379 19.0083 14.1161 19.0882 14.4805L19.5031 16.3826C19.6389 17.0046 19.5964 17.6517 19.3803 18.251C19.1643 18.8502 18.7834 19.3776 18.2806 19.7736C17.7778 20.1696 17.1733 20.4183 16.5353 20.4917C15.8973 20.5651 15.2512 20.4602 14.6702 20.1889L12.8944 19.3599C12.554 19.2002 12.1794 19.125 11.803 19.141C11.4267 19.1571 11.06 19.2638 10.7346 19.4519L9.03784 20.4308C8.46985 20.76 7.81861 20.9214 7.16104 20.8956Z" fill="black"/>
</svg>
